<svg xmlns="http://www.w3.org/2000/svg" width="54.594" height="54.81" viewBox="0 0 54.594 54.81">
  <metadata><?xpacket begin="﻿" id="W5M0MpCehiHzreSzNTczkc9d"?>
<x:xmpmeta xmlns:x="adobe:ns:meta/" x:xmptk="Adobe XMP Core 5.6-c140 79.160451, 2017/05/06-01:08:21        ">
   <rdf:RDF xmlns:rdf="http://www.w3.org/1999/02/22-rdf-syntax-ns#">
      <rdf:Description rdf:about=""/>
   </rdf:RDF>
</x:xmpmeta>
                                                                                                    
                                                                                                    
                                                                                                    
                                                                                                    
                                                                                                    
                                                                                                    
                                                                                                    
                                                                                                    
                                                                                                    
                                                                                                    
                                                                                                    
                                                                                                    
                                                                                                    
                                                                                                    
                                                                                                    
                                                                                                    
                                                                                                    
                                                                                                    
                                                                                                    
                                                                                                    
                           
<?xpacket end="w"?></metadata>
<defs>
    <style>
      .cls-1 {
        fill: #fff;
        fill-rule: evenodd;
      }
    </style>
  </defs>
  <path id="Forme_4" data-name="Forme 4" class="cls-1" d="M429.677,3222.2a13.943,13.943,0,1,1,13.928,14.01,13.984,13.984,0,0,1-13.928-14.01h0Zm28.339-27.39h-28.79a12.962,12.962,0,0,0-12.9,12.95v28.9a12.981,12.981,0,0,0,12.9,12.95h28.79a12.961,12.961,0,0,0,12.9-12.95v-28.9a12.941,12.941,0,0,0-12.9-12.95h0Zm-28.79,3.24h28.79a9.706,9.706,0,0,1,9.676,9.71v28.9a9.7,9.7,0,0,1-9.676,9.71h-28.79a9.7,9.7,0,0,1-9.678-9.71v-28.9a9.707,9.707,0,0,1,9.678-9.71h0Zm31.653,4.08a2.845,2.845,0,1,0,2.834,2.85,2.836,2.836,0,0,0-2.834-2.85h0Zm0.331,20.07a17.605,17.605,0,1,0-17.6,17.67,17.642,17.642,0,0,0,17.6-17.67h0Z" transform="translate(-416.312 -3194.81)"/>
</svg>
