<svg xmlns="http://www.w3.org/2000/svg" width="58.812" height="59" viewBox="0 0 58.812 59">
  <metadata><?xpacket begin="﻿" id="W5M0MpCehiHzreSzNTczkc9d"?>
<x:xmpmeta xmlns:x="adobe:ns:meta/" x:xmptk="Adobe XMP Core 5.6-c140 79.160451, 2017/05/06-01:08:21        ">
   <rdf:RDF xmlns:rdf="http://www.w3.org/1999/02/22-rdf-syntax-ns#">
      <rdf:Description rdf:about=""/>
   </rdf:RDF>
</x:xmpmeta>
                                                                                                    
                                                                                                    
                                                                                                    
                                                                                                    
                                                                                                    
                                                                                                    
                                                                                                    
                                                                                                    
                                                                                                    
                                                                                                    
                                                                                                    
                                                                                                    
                                                                                                    
                                                                                                    
                                                                                                    
                                                                                                    
                                                                                                    
                                                                                                    
                                                                                                    
                                                                                                    
                           
<?xpacket end="w"?></metadata>
<defs>
    <style>
      .cls-1 {
        fill: #fff;
        fill-rule: evenodd;
      }
    </style>
  </defs>
  <path id="Forme_5" data-name="Forme 5" class="cls-1" d="M562.589,3192.01a29.5,29.5,0,1,0,29.395,29.5A29.533,29.533,0,0,0,562.589,3192.01Zm13.523,42.62a1.741,1.741,0,0,1-2.5.6c-6.91-4.28-15.583-5.17-25.868-2.81a1.824,1.824,0,0,1-.88-3.54c11.165-2.51,20.867-1.47,28.51,3.25A1.76,1.76,0,0,1,576.112,3234.63Zm3.528-8.11a2.2,2.2,0,0,1-3.086.74c-7.936-4.87-19.992-6.34-29.247-3.39a2.24,2.24,0,0,1-1.325-4.28c10.729-3.24,23.956-1.62,33.068,3.98A2.081,2.081,0,0,1,579.64,3226.52Zm4.116-8.99a3.069,3.069,0,0,1-3.818.73c-9.413-5.6-25.135-6.19-34.1-3.39a2.7,2.7,0,0,1-1.613-5.16c10.434-3.1,27.628-2.51,38.507,3.98A2.863,2.863,0,0,1,583.756,3217.53Z" transform="translate(-533.188 -3192)"/>
</svg>
