<svg xmlns="http://www.w3.org/2000/svg" width="73.5" height="54.06" viewBox="0 0 73.5 54.06">
  <metadata><?xpacket begin="﻿" id="W5M0MpCehiHzreSzNTczkc9d"?>
<x:xmpmeta xmlns:x="adobe:ns:meta/" x:xmptk="Adobe XMP Core 5.6-c140 79.160451, 2017/05/06-01:08:21        ">
   <rdf:RDF xmlns:rdf="http://www.w3.org/1999/02/22-rdf-syntax-ns#">
      <rdf:Description rdf:about=""/>
   </rdf:RDF>
</x:xmpmeta>
                                                                                                    
                                                                                                    
                                                                                                    
                                                                                                    
                                                                                                    
                                                                                                    
                                                                                                    
                                                                                                    
                                                                                                    
                                                                                                    
                                                                                                    
                                                                                                    
                                                                                                    
                                                                                                    
                                                                                                    
                                                                                                    
                                                                                                    
                                                                                                    
                                                                                                    
                                                                                                    
                           
<?xpacket end="w"?></metadata>
<defs>
    <style>
      .cls-1 {
        fill: #fff;
        fill-rule: evenodd;
      }
    </style>
  </defs>
  <path id="Forme_2" data-name="Forme 2" class="cls-1" d="M228.777,3207.89s-0.755-5.31-2.949-7.63a10.493,10.493,0,0,0-7.329-3.28c-10.279-.76-25.7-0.76-25.7-0.76h-0.082s-15.376,0-25.658.76a10.446,10.446,0,0,0-7.367,3.28c-2.192,2.32-2.947,7.63-2.947,7.63a117.894,117.894,0,0,0-.759,12.39v5.88a115.9,115.9,0,0,0,.759,12.39s0.755,5.31,2.947,7.67c2.788,3.08,6.455,2.96,8.128,3.28,5.856,0.6,24.979.8,24.979,0.8s15.417-.08,25.7-0.8a10.316,10.316,0,0,0,7.329-3.28c2.194-2.36,2.949-7.67,2.949-7.67a122.754,122.754,0,0,0,.716-12.39v-5.88c0-6.15-.716-12.39-0.716-12.39h0Zm-23.744,14.55-19.881,10.75v-21.58l9.005,4.92Z" transform="translate(-156 -3196.22)"/>
</svg>
